<svg id="visual" viewBox="0 0 900 600" width="900" height="600" xmlns="http://www.w3.org/2000/svg" xmlns:xlink="http://www.w3.org/1999/xlink" version="1.1"><path d="M0 67L82 67L82 43L164 43L164 67L245 67L245 97L327 97L327 49L409 49L409 55L491 55L491 91L573 91L573 97L655 97L655 43L736 43L736 67L818 67L818 85L900 85L900 61L900 0L900 0L818 0L818 0L736 0L736 0L655 0L655 0L573 0L573 0L491 0L491 0L409 0L409 0L327 0L327 0L245 0L245 0L164 0L164 0L82 0L82 0L0 0Z" fill="#fa7268"></path><path d="M0 109L82 109L82 103L164 103L164 163L245 163L245 151L327 151L327 121L409 121L409 157L491 157L491 169L573 169L573 193L655 193L655 103L736 103L736 133L818 133L818 127L900 127L900 175L900 59L900 83L818 83L818 65L736 65L736 41L655 41L655 95L573 95L573 89L491 89L491 53L409 53L409 47L327 47L327 95L245 95L245 65L164 65L164 41L82 41L82 65L0 65Z" fill="#ea5e66"></path><path d="M0 343L82 343L82 241L164 241L164 337L245 337L245 421L327 421L327 277L409 277L409 415L491 415L491 259L573 259L573 343L655 343L655 223L736 223L736 379L818 379L818 259L900 259L900 265L900 173L900 125L818 125L818 131L736 131L736 101L655 101L655 191L573 191L573 167L491 167L491 155L409 155L409 119L327 119L327 149L245 149L245 161L164 161L164 101L82 101L82 107L0 107Z" fill="#d84a64"></path><path d="M0 409L82 409L82 397L164 397L164 391L245 391L245 481L327 481L327 379L409 379L409 469L491 469L491 331L573 331L573 397L655 397L655 283L736 283L736 505L818 505L818 367L900 367L900 337L900 263L900 257L818 257L818 377L736 377L736 221L655 221L655 341L573 341L573 257L491 257L491 413L409 413L409 275L327 275L327 419L245 419L245 335L164 335L164 239L82 239L82 341L0 341Z" fill="#c53762"></path><path d="M0 601L82 601L82 601L164 601L164 601L245 601L245 601L327 601L327 601L409 601L409 601L491 601L491 601L573 601L573 601L655 601L655 601L736 601L736 601L818 601L818 601L900 601L900 601L900 335L900 365L818 365L818 503L736 503L736 281L655 281L655 395L573 395L573 329L491 329L491 467L409 467L409 377L327 377L327 479L245 479L245 389L164 389L164 395L82 395L82 407L0 407Z" fill="#b0235f"></path></svg>