<svg id="visual" viewBox="0 0 900 600" width="900" height="600" xmlns="http://www.w3.org/2000/svg" xmlns:xlink="http://www.w3.org/1999/xlink" version="1.1"><rect x="0" y="0" width="900" height="600" fill="#002233"></rect><path d="M0 448L10 460.5C20 473 40 498 60 507.7C80 517.3 100 511.7 120 498.3C140 485 160 464 180 468.2C200 472.3 220 501.7 240 505.8C260 510 280 489 300 487C320 485 340 502 360 509.3C380 516.7 400 514.3 420 516.3C440 518.3 460 524.7 480 528.8C500 533 520 535 540 535.5C560 536 580 535 600 518.8C620 502.7 640 471.3 660 454.3C680 437.3 700 434.7 720 436.3C740 438 760 444 780 460.7C800 477.3 820 504.7 840 512.8C860 521 880 510 890 504.5L900 499L900 601L890 601C880 601 860 601 840 601C820 601 800 601 780 601C760 601 740 601 720 601C700 601 680 601 660 601C640 601 620 601 600 601C580 601 560 601 540 601C520 601 500 601 480 601C460 601 440 601 420 601C400 601 380 601 360 601C340 601 320 601 300 601C280 601 260 601 240 601C220 601 200 601 180 601C160 601 140 601 120 601C100 601 80 601 60 601C40 601 20 601 10 601L0 601Z" fill="#0066FF" stroke-linecap="round" stroke-linejoin="miter"></path></svg>